<svg width="547" height="327" viewBox="0 0 547 327" fill="none" xmlns="http://www.w3.org/2000/svg">
<path d="M243.916 51.74C244.952 56.5087 245.056 61.381 244.227 66.357C243.605 71.1257 242.672 75.4797 241.428 79.419C238.94 87.505 236.037 96.524 232.72 106.476C229.402 116.428 226.085 126.38 222.768 136.332C219.45 146.284 216.237 155.718 213.127 164.633C210.017 173.341 207.425 180.598 205.352 186.403C203.278 191.794 201.101 197.91 198.821 204.752C196.54 211.594 193.741 218.332 190.424 224.967C187.314 231.394 183.582 237.303 179.228 242.694C175.081 248.085 170.001 252.024 163.989 254.512C157.976 257 152.482 257.622 147.506 256.378C142.53 254.927 138.072 252.439 134.133 248.914C130.193 245.182 126.565 240.621 123.248 235.23C120.138 229.632 117.339 223.93 114.851 218.125C112.363 212.32 110.082 206.722 108.009 201.331C105.935 195.733 104.069 190.964 102.411 187.025C95.9833 172.926 90.1779 157.998 84.9946 142.241C79.8113 126.484 74.5243 111.452 69.1336 97.146C67.6823 92.9993 66.0236 88.0233 64.1576 82.218C62.2916 76.2053 61.0476 70.2963 60.4256 64.491C60.0109 58.4783 60.7366 53.0877 62.6026 48.319C64.4686 43.343 68.4079 39.922 74.4206 38.056C75.6646 37.6413 76.9086 37.3303 78.1526 37.123C79.6039 36.7083 80.9516 36.3973 82.1956 36.19C83.6469 36.19 84.9946 36.2937 86.2386 36.501C87.4826 36.7083 88.8303 37.2267 90.2816 38.056C91.3183 38.4707 92.3549 38.989 93.3916 39.611C94.4283 40.0257 95.3613 40.6477 96.1906 41.477C97.0199 42.5137 97.7456 43.5503 98.3676 44.587C99.1969 45.6237 100.026 46.6603 100.856 47.697C101.478 49.1483 101.996 50.496 102.411 51.74C103.033 52.7767 103.551 53.8133 103.966 54.85C104.38 56.3013 104.899 57.649 105.521 58.893C106.143 59.9297 106.661 60.9663 107.076 62.003L108.942 67.29L153.726 195.111L197.888 67.601L200.065 62.314C200.479 61.2773 200.894 60.2407 201.309 59.204C201.723 57.96 202.138 56.6123 202.553 55.161C202.967 54.1243 203.382 53.0877 203.797 52.051C204.419 50.807 205.144 49.563 205.974 48.319C206.596 47.2823 207.218 46.2456 207.84 45.209C208.669 43.965 209.498 42.8247 210.328 41.788C210.95 40.9587 211.675 40.233 212.505 39.611C213.541 38.989 214.474 38.4707 215.304 38.056C216.962 37.2267 218.414 36.7083 219.658 36.501C221.109 36.2937 222.353 36.19 223.39 36.19C224.634 36.3973 225.878 36.7083 227.122 37.123C228.573 37.3303 229.921 37.6413 231.165 38.056C235.104 39.0926 238.007 40.855 239.873 43.343C241.946 45.831 243.294 48.63 243.916 51.74ZM376.659 233.364C376.452 236.889 375.933 240.621 375.104 244.56C374.482 248.499 372.512 251.713 369.195 254.201C366.707 256.274 363.908 257.518 360.798 257.933C357.688 258.348 354.578 258.14 351.468 257.311C348.565 256.689 345.766 255.652 343.071 254.201C340.376 252.542 338.199 250.573 336.54 248.292C329.491 239.584 322.96 230.669 316.947 221.546C311.142 212.216 305.233 202.886 299.22 193.556L273.096 154.059C269.571 148.461 265.839 142.241 261.9 135.399C257.961 128.35 253.918 121.819 249.771 115.806L248.838 234.608V237.407C248.838 240.724 248.216 244.042 246.972 247.359C245.935 250.469 244.069 253.164 241.374 255.445C239.301 257.104 236.605 258.244 233.288 258.866C228.105 259.903 223.751 259.592 220.226 257.933C216.909 256.274 214.213 253.994 212.14 251.091C210.274 248.188 208.926 244.871 208.097 241.139C207.475 237.2 207.371 233.364 207.786 229.632V224.345L208.408 200.087L208.719 154.992C208.926 148.357 209.03 141.619 209.03 134.777C209.03 127.728 209.03 120.575 209.03 113.318C208.823 104.403 208.823 94.969 209.03 85.017C209.445 75.065 209.859 65.735 210.274 57.027C210.689 52.2583 211.829 48.2153 213.695 44.898C214.524 41.9953 216.701 39.5073 220.226 37.434C222.507 35.9827 225.409 35.0497 228.934 34.635C232.666 34.2203 235.88 34.324 238.575 34.946C239.612 35.3607 240.648 35.879 241.685 36.501C242.722 36.9157 243.758 37.434 244.795 38.056C245.832 38.8853 246.765 39.7147 247.594 40.544C248.631 41.3733 249.564 42.3063 250.393 43.343C251.43 44.3797 252.363 45.52 253.192 46.764C254.021 47.8007 254.851 48.8373 255.68 49.874C256.302 51.118 256.924 52.2583 257.546 53.295C258.168 54.3317 258.894 55.3683 259.723 56.405L263.144 61.381L334.985 174.585V154.059C334.985 147.424 334.881 140.686 334.674 133.844C334.674 126.795 334.57 119.538 334.363 112.074C334.363 103.366 334.363 94.036 334.363 84.084C334.57 74.132 334.881 64.802 335.296 56.094C335.296 52.5693 336.333 48.5263 338.406 43.965C339.443 41.2697 341.205 39.0927 343.693 37.434C346.181 35.7753 348.98 34.635 352.09 34.013C355.2 33.391 358.31 33.391 361.42 34.013C364.53 34.635 367.225 35.879 369.506 37.745C370.128 38.367 370.75 39.0927 371.372 39.922C371.994 40.7513 372.513 41.6843 372.927 42.721C373.964 45.4163 374.586 47.8007 374.793 49.874C375.415 52.7767 375.726 55.3683 375.726 57.649C375.726 83.5657 375.726 110.001 375.726 136.954C375.933 163.907 376.141 190.342 376.348 216.259C376.348 219.162 376.452 222.064 376.659 224.967C376.867 227.662 376.867 230.461 376.659 233.364ZM462.184 142.241C468.197 146.18 473.276 150.845 477.423 156.236C481.777 161.419 485.198 167.847 487.686 175.518C490.381 184.019 491.729 192.623 491.729 201.331C491.936 209.832 490.381 217.814 487.064 225.278C483.954 232.535 478.874 238.962 471.825 244.56C464.983 249.951 455.964 253.786 444.768 256.067C438.755 257.518 431.706 258.659 423.62 259.488C415.534 260.317 408.277 260.732 401.85 260.732C393.764 260.939 385.367 260.939 376.659 260.732C368.158 260.732 359.865 259.903 351.779 258.244C348.254 257.207 345.663 255.445 344.004 252.957C342.553 250.262 341.516 247.255 340.894 243.938C340.065 242.072 339.65 240.206 339.65 238.34V61.692C339.65 55.8867 340.79 51.429 343.071 48.319C345.559 45.0017 348.773 42.6173 352.712 41.166C356.651 39.5073 361.109 38.5743 366.085 38.367C371.061 37.9523 376.244 37.745 381.635 37.745C385.782 37.745 389.928 37.745 394.075 37.745C398.429 37.5377 402.783 37.5377 407.137 37.745C413.979 37.9523 421.028 38.5743 428.285 39.611C435.749 40.4403 442.798 42.099 449.433 44.587C452.543 45.6237 455.86 47.075 459.385 48.941C462.91 50.5997 465.709 52.673 467.782 55.161C474.417 61.1737 479.289 68.223 482.399 76.309C485.716 84.1877 487.168 92.2737 486.753 100.567C486.338 108.653 484.058 116.428 479.911 123.892C475.972 131.356 470.063 137.472 462.184 142.241ZM407.759 224.656C414.186 224.241 420.717 223.516 427.352 222.479C433.987 221.442 438.548 219.473 441.036 216.57C443.731 213.253 445.597 209.417 446.634 205.063C447.878 200.502 448.189 195.94 447.567 191.379C447.152 186.61 445.805 182.153 443.524 178.006C441.451 173.652 438.652 170.231 435.127 167.743C430.358 164.011 424.864 161.627 418.644 160.59C412.424 159.346 406.308 158.724 400.295 158.724C397.392 158.724 394.697 158.828 392.209 159.035C389.928 159.035 387.855 159.346 385.989 159.968C384.33 160.383 383.086 161.316 382.257 162.767C381.428 164.218 381.013 166.395 381.013 169.298C381.428 174.689 381.428 180.079 381.013 185.47C380.598 190.861 380.391 196.044 380.391 201.02C380.391 203.923 380.287 207.136 380.08 210.661C380.08 213.978 381.22 216.777 383.501 219.058C385.782 221.339 389.099 222.894 393.453 223.723C397.807 224.552 402.576 224.863 407.759 224.656ZM413.979 75.376C407.552 75.1687 402.161 75.065 397.807 75.065C393.66 74.8577 390.343 75.1687 387.855 75.998C385.574 76.62 383.916 78.175 382.879 80.663C382.05 82.9437 381.739 86.4683 381.946 91.237C381.946 95.1763 381.842 99.1157 381.635 103.055C381.635 106.787 381.635 110.519 381.635 114.251C381.635 118.398 382.983 121.508 385.678 123.581C388.373 125.447 391.691 126.587 395.63 127.002C399.777 127.417 404.027 127.417 408.381 127.002C412.942 126.587 416.882 126.069 420.199 125.447C427.663 124.203 433.365 121.715 437.304 117.983C441.451 114.044 443.835 108.342 444.457 100.878C445.286 91.548 442.798 85.1207 436.993 81.596C431.395 77.864 423.724 75.7907 413.979 75.376Z" fill="black"/>
<path d="M22 302L525 302" stroke="black" stroke-width="31" stroke-linecap="round"/>
</svg>
